<svg width="40" height="60" viewBox="0 0 800 1200" xmlns="http://www.w3.org/2000/svg">
 <g>
  <title>Layer 1</title>
  <g id="svg_21" stroke="null">
   <path fill="#fff" d="m35.00034,503.9283l176.94376,97.88845l0.38706,195.13732l-176.94378,-97.88845l-0.38705,-195.13732l0.00001,0z" id="svg_13" stroke="#000"/>
   <path fill="#fff" d="m39.22253,498.52579l177.33082,-97.24886l177.33083,97.24886l-177.33083,97.24888l-177.33082,-97.24888z" id="svg_14" stroke="#000"/>
   <path fill="#fff" d="m219.56861,605.2052l176.94376,97.88844l0.38706,195.13732l-176.94378,-97.88845l-0.38704,-195.13731z" id="svg_15" stroke="#000"/>
   <path fill="#fff" d="m223.79136,599.80272l177.33082,-97.24886l177.33083,97.24886l-177.33083,97.24888l-177.33082,-97.24888z" id="svg_16" stroke="#000"/>
   <path fill="#fff" d="m581.46873,605.20524l-0.38706,195.13731l-176.94377,97.88845l0.38705,-195.13733l176.94377,-97.88844l0.00001,0.00001z" id="svg_17" stroke="#000"/>
   <path fill="#fff" d="m407.15384,498.52579l177.33082,-97.24886l177.33083,97.24886l-177.33083,97.24888l-177.33082,-97.24888z" id="svg_18" stroke="#000"/>
   <path fill="#fff" d="m764.83086,503.92758l-0.38706,195.13731l-176.94377,97.88845l0.38705,-195.13733l176.94377,-97.88844l0.00001,0.00001z" id="svg_19" stroke="#000"/>
   <path fill="#fff" d="m222.58502,397.24886l177.33082,-97.24886l177.33083,97.24886l-177.33083,97.24888l-177.33082,-97.24888z" id="svg_20" stroke="#000"/>
  </g>
 </g>
</svg>